<svg xmlns="http://www.w3.org/2000/svg" xmlns:xlink="http://www.w3.org/1999/xlink" version="1.1" x="0px" y="0px" viewBox="0 0 100 125" enable-background="new 0 0 100 100" xml:space="preserve"><path fill="#000000" 
d=
"M62.556,55.251c-0.582-4.41-2.9-10.966-3.395-12.451c-0.495-1.486-3.713-9.795-4.516-14.726  c-0.708-4.354-1.116-15.869-1.161-17.19c-0.003-0.082,0.017-0.161,0.058-0.232l0.042-0.073c0.067-0.117,0.077-0.259,0.026-0.384v0  c-0.053-0.129-0.041-0.275,0.032-0.394l0.351-0.573c0.054-0.088,0.075-0.193,0.059-0.295l-0.141-0.916  c-0.012-0.077-0.044-0.15-0.094-0.21l-0.145-0.178c-0.077-0.095-0.111-0.216-0.094-0.337c0.038-0.281,0.087-0.832-0.03-1.3  c-0.153-0.612-0.306-0.657-0.721-0.922C52.758,5.023,52.676,5,52.593,5h-2.69h-2.497c-0.083,0-0.164,0.023-0.234,0.068  c-0.415,0.266-0.568,0.311-0.721,0.922c-0.117,0.468-0.068,1.019-0.03,1.3c0.017,0.121-0.017,0.243-0.094,0.337l-0.145,0.178  c-0.049,0.061-0.082,0.133-0.094,0.21l-0.141,0.916c-0.016,0.102,0.005,0.207,0.059,0.295L46.357,9.8  c0.073,0.119,0.085,0.265,0.032,0.394c-0.051,0.125-0.042,0.267,0.026,0.384l0.042,0.073c0.041,0.071,0.061,0.151,0.058,0.232  c-0.045,1.321-0.452,12.836-1.161,17.19c-0.802,4.931-4.02,13.241-4.516,14.726c-0.495,1.486-2.813,8.042-3.395,12.451  c-0.606,4.586-0.548,21.464-0.402,24.028c0.108,1.892,0.007,10.13,0.189,12.325c0.089,1.068,0.562,1.801,0.782,2.044  C39.099,94.845,49.878,95,49.878,95s11.022-0.155,12.108-1.352c0.22-0.242,0.693-0.976,0.782-2.044  c0.183-2.195,0.081-10.433,0.189-12.325C63.104,76.715,63.162,59.837,62.556,55.251z M41.565,90.03c-0.001,0-0.001,0-0.002,0  c-0.261,0-0.473-0.211-0.474-0.472l-0.1-24.627c-0.001-0.261,0.21-0.474,0.472-0.476c0.001,0,0.001,0,0.002,0  c0.261,0,0.473,0.211,0.474,0.472l0.1,24.627C42.038,89.816,41.827,90.029,41.565,90.03z M44.316,46.974  c-0.011,0.037-1.142,3.762-1.519,5.807c-0.546,2.966-0.705,7.554-0.706,7.6c-0.009,0.256-0.219,0.458-0.473,0.458  c-0.005,0-0.011,0-0.016,0c-0.261-0.009-0.466-0.228-0.458-0.489c0.006-0.191,0.163-4.705,0.721-7.739  c0.386-2.099,1.497-5.757,1.544-5.912c0.076-0.25,0.341-0.392,0.591-0.315C44.251,46.459,44.392,46.723,44.316,46.974z
"/><text x="0" y="115" fill="#000000" font-size="5px" font-weight="bold" font-family="'Helvetica Neue', Helvetica, Arial-Unicode, Arial, Sans-serif">Created by Nadi Kurganskaya</text><text x="0" y="120" fill="#000000" font-size="5px" font-weight="bold" font-family="'Helvetica Neue', Helvetica, Arial-Unicode, Arial, Sans-serif">from the Noun Project</text></svg>