<svg xmlns="http://www.w3.org/2000/svg" xmlns:xlink="http://www.w3.org/1999/xlink" version="1.1" x="0px" y="0px" viewBox="0 0 100 125" enable-background="new 0 0 100 100" xml:space="preserve"><path d=
"M58.709,48.062c-7.346-13.437-5.094-36.502-5.094-36.502c1.516-0.451,0-2.419,0-2.419c-0.646-0.773-0.097-1.547-0.097-1.547  c0.21-0.715-0.193-1.179-0.814-1.481c0.14-0.045,0.282-0.092,0.427-0.143c0.406-0.155,0.828-0.562,0.896-0.879  c0.252-1.147,0.164-2.366-0.241-3.513c-0.111-0.317-0.565-0.724-0.958-0.879c-2.549-0.932-4.071-0.932-6.618,0  c-0.393,0.155-0.847,0.562-0.959,0.879c-0.405,1.147-0.492,2.366-0.24,3.513c0.067,0.317,0.488,0.724,0.896,0.879  c0.138,0.049,0.273,0.093,0.409,0.137c-0.628,0.301-1.038,0.768-0.828,1.487c0,0,0.55,0.773-0.096,1.547c0,0-1.517,1.968,0,2.419  c0,0,2.251,23.065-5.093,36.502c-3.006,5.497-6.577,10.245-5.609,24.421l1.869,23.907c0,0-0.323,2.964,4.32,3.286  c0,0,3.661,0.323,8.626,0.323c4.964,0,8.625-0.323,8.625-0.323c4.642-0.322,4.318-3.286,4.318-3.286l1.871-23.907  C65.285,58.308,61.713,53.56,58.709,48.062z"
/><text x="0" y="115" fill="#000000" font-size="5px" font-weight="bold" font-family="'Helvetica Neue', Helvetica, Arial-Unicode, Arial, Sans-serif">Created by Fabio Meroni</text><text x="0" y="120" fill="#000000" font-size="5px" font-weight="bold" font-family="'Helvetica Neue', Helvetica, Arial-Unicode, Arial, Sans-serif">from the Noun Project</text></svg>